<svg id="visual" viewBox="0 0 960 540" width="960" height="540" xmlns="http://www.w3.org/2000/svg" xmlns:xlink="http://www.w3.org/1999/xlink" version="1.1"><rect x="0" y="0" width="960" height="540" fill="#001220"></rect><path d="M0 418L22.8 419.2C45.7 420.3 91.3 422.7 137 422.3C182.7 422 228.3 419 274 417.3C319.7 415.7 365.3 415.3 411.2 418C457 420.7 503 426.3 548.8 425.8C594.7 425.3 640.3 418.7 686 418.2C731.7 417.7 777.3 423.3 823 424C868.7 424.7 914.3 420.3 937.2 418.2L960 416L960 541L937.2 541C914.3 541 868.7 541 823 541C777.3 541 731.7 541 686 541C640.3 541 594.7 541 548.8 541C503 541 457 541 411.2 541C365.3 541 319.7 541 274 541C228.3 541 182.7 541 137 541C91.3 541 45.7 541 22.8 541L0 541Z" fill="#89b7ad"></path><path d="M0 436L22.8 438.2C45.7 440.3 91.3 444.7 137 447C182.7 449.3 228.3 449.7 274 448C319.7 446.3 365.3 442.7 411.2 440.3C457 438 503 437 548.8 438.8C594.7 440.7 640.3 445.3 686 446.2C731.7 447 777.3 444 823 442.5C868.7 441 914.3 441 937.2 441L960 441L960 541L937.2 541C914.3 541 868.7 541 823 541C777.3 541 731.7 541 686 541C640.3 541 594.7 541 548.8 541C503 541 457 541 411.2 541C365.3 541 319.7 541 274 541C228.3 541 182.7 541 137 541C91.3 541 45.7 541 22.8 541L0 541Z" fill="#6fb19f"></path><path d="M0 451L22.8 452C45.7 453 91.3 455 137 455.5C182.7 456 228.3 455 274 455.2C319.7 455.3 365.3 456.7 411.2 457.2C457 457.7 503 457.3 548.8 459.2C594.7 461 640.3 465 686 467.2C731.7 469.3 777.3 469.7 823 467.2C868.7 464.7 914.3 459.3 937.2 456.7L960 454L960 541L937.2 541C914.3 541 868.7 541 823 541C777.3 541 731.7 541 686 541C640.3 541 594.7 541 548.8 541C503 541 457 541 411.2 541C365.3 541 319.7 541 274 541C228.3 541 182.7 541 137 541C91.3 541 45.7 541 22.8 541L0 541Z" fill="#56ab8f"></path><path d="M0 478L22.8 478.8C45.7 479.7 91.3 481.3 137 481.2C182.7 481 228.3 479 274 478.3C319.7 477.7 365.3 478.3 411.2 479.3C457 480.3 503 481.7 548.8 481.5C594.7 481.3 640.3 479.7 686 478.3C731.7 477 777.3 476 823 477C868.7 478 914.3 481 937.2 482.5L960 484L960 541L937.2 541C914.3 541 868.7 541 823 541C777.3 541 731.7 541 686 541C640.3 541 594.7 541 548.8 541C503 541 457 541 411.2 541C365.3 541 319.7 541 274 541C228.3 541 182.7 541 137 541C91.3 541 45.7 541 22.8 541L0 541Z" fill="#3ea57c"></path><path d="M0 494L22.8 494.7C45.7 495.3 91.3 496.7 137 497.7C182.7 498.7 228.3 499.3 274 500.3C319.7 501.3 365.3 502.7 411.2 501.3C457 500 503 496 548.8 493.8C594.7 491.7 640.3 491.3 686 492.2C731.7 493 777.3 495 823 494.8C868.7 494.7 914.3 492.3 937.2 491.2L960 490L960 541L937.2 541C914.3 541 868.7 541 823 541C777.3 541 731.7 541 686 541C640.3 541 594.7 541 548.8 541C503 541 457 541 411.2 541C365.3 541 319.7 541 274 541C228.3 541 182.7 541 137 541C91.3 541 45.7 541 22.8 541L0 541Z" fill="#249e67"></path><path d="M0 518L22.8 516.7C45.7 515.3 91.3 512.7 137 512.2C182.7 511.7 228.3 513.3 274 513.8C319.7 514.3 365.3 513.7 411.2 515C457 516.3 503 519.7 548.8 520.7C594.7 521.7 640.3 520.3 686 518.5C731.7 516.7 777.3 514.3 823 514.3C868.7 514.3 914.3 516.7 937.2 517.8L960 519L960 541L937.2 541C914.3 541 868.7 541 823 541C777.3 541 731.7 541 686 541C640.3 541 594.7 541 548.8 541C503 541 457 541 411.2 541C365.3 541 319.7 541 274 541C228.3 541 182.7 541 137 541C91.3 541 45.7 541 22.8 541L0 541Z" fill="#009650"></path></svg>